<?xml version="1.0" standalone="no"?>
<!DOCTYPE svg PUBLIC "-//W3C//DTD SVG 20010904//EN"
 "http://www.w3.org/TR/2001/REC-SVG-20010904/DTD/svg10.dtd">
<svg version="1.0" xmlns="http://www.w3.org/2000/svg"
 width="600.000000pt" height="600.000000pt" viewBox="0 0 600.000000 600.000000"
 preserveAspectRatio="xMidYMid meet">

<g transform="translate(0.000000,600.000000) scale(0.100000,-0.100000)"
fill="#4a725b" stroke="none">
<path d="M2795 5571 c-210 -45 -313 -97 -435 -220 -95 -96 -151 -189 -191
-321 -30 -96 -32 -271 -6 -370 39 -145 130 -302 301 -515 143 -178 206 -313
206 -441 0 -135 -77 -315 -217 -509 -215 -299 -240 -346 -250 -489 -11 -154
11 -253 122 -561 25 -71 98 -312 161 -535 203 -713 292 -1001 377 -1220 24
-63 47 -123 50 -132 7 -21 26 -24 32 -5 6 18 30 188 65 462 40 316 49 529 25
650 -34 184 -83 276 -297 562 -163 218 -227 326 -271 451 -35 100 -46 221 -28
317 26 141 137 294 253 348 286 135 679 -44 730 -333 18 -104 -29 -236 -114
-321 -136 -136 -326 -144 -462 -19 -85 78 -117 190 -86 301 13 45 79 122 120
139 78 32 195 -11 238 -89 56 -99 -2 -222 -106 -225 -54 -2 -49 26 13 66 41
27 51 39 53 66 4 43 -18 77 -68 102 -56 29 -100 26 -132 -7 -98 -103 -39 -277
111 -328 184 -62 334 67 333 288 0 91 -29 164 -90 224 -110 108 -311 131 -468
53 -149 -73 -246 -261 -230 -447 12 -148 82 -282 301 -578 201 -270 258 -403
286 -658 15 -144 5 -274 -50 -627 -21 -140 -42 -280 -46 -310 -3 -30 -8 -67
-11 -83 -4 -19 -1 -27 9 -27 8 0 20 23 31 63 17 62 291 960 413 1352 156 503
197 637 229 755 56 202 56 364 1 483 -13 29 -76 122 -140 207 -130 174 -204
298 -241 411 -86 259 -47 401 195 696 237 289 321 523 275 767 -55 288 -256
504 -551 591 -124 37 -310 43 -440 16z m344 -155 c228 -66 385 -263 422 -529
27 -194 -58 -385 -203 -456 -79 -39 -222 -71 -239 -54 -23 23 7 114 72 214 87
136 112 241 85 348 -38 147 -153 234 -308 233 -151 -2 -280 -110 -307 -258
-17 -91 21 -224 93 -323 44 -60 73 -118 81 -163 9 -49 -15 -62 -106 -56 -160
12 -281 127 -329 313 -63 248 35 517 240 653 141 95 337 125 499 78z"/>
</g>
</svg>
