<?xml version="1.0" standalone="no"?>
<!DOCTYPE svg PUBLIC "-//W3C//DTD SVG 20010904//EN"
 "http://www.w3.org/TR/2001/REC-SVG-20010904/DTD/svg10.dtd">
<svg version="1.0" xmlns="http://www.w3.org/2000/svg"
 width="225.000000pt" height="225.000000pt" viewBox="0 0 225.000000 225.000000"
 preserveAspectRatio="xMidYMid meet">

<g transform="translate(0.000000,225.000000) scale(0.100000,-0.100000)"
fill="#000000" stroke="none">
<path d="M540 1312 l0 -98 -60 4 c-57 4 -61 3 -90 -28 -80 -85 13 -228 118
-180 19 8 28 8 30 1 2 -6 12 -11 23 -11 18 0 19 10 19 205 0 198 -1 205 -20
205 -19 0 -20 -7 -20 -98z m-20 -152 c29 -29 26 -74 -6 -99 -15 -12 -34 -21
-44 -21 -10 0 -29 9 -44 21 -50 40 -21 119 44 119 17 0 39 -9 50 -20z"/>
<path d="M620 1205 c0 -198 1 -205 20 -205 18 0 20 7 20 70 0 82 18 110 73
110 50 0 65 -24 69 -105 2 -57 6 -70 21 -73 15 -3 17 6 17 78 0 78 -1 83 -31
112 -28 29 -33 30 -90 25 l-59 -5 0 99 c0 92 -1 99 -20 99 -19 0 -20 -7 -20
-205z"/>
<path d="M923 1284 c-8 -21 13 -42 28 -27 13 13 5 43 -11 43 -6 0 -13 -7 -17
-16z"/>
<path d="M1023 1284 c-8 -21 13 -42 28 -27 13 13 5 43 -11 43 -6 0 -13 -7 -17
-16z"/>
<path d="M1144 1217 c-2 -7 -3 -58 -2 -113 3 -85 5 -99 21 -102 15 -3 17 5 17
61 0 81 23 117 75 117 52 0 75 -36 75 -116 0 -58 2 -64 21 -64 20 0 21 4 17
81 -3 77 -5 82 -37 111 -32 28 -38 30 -93 25 -32 -3 -58 -1 -58 4 0 14 -30 11
-36 -4z"/>
<path d="M1410 1115 c0 -108 1 -115 20 -115 18 0 20 7 20 73 0 84 14 107 68
107 53 0 72 -28 72 -110 0 -64 2 -70 21 -70 20 0 21 4 18 86 -4 80 -6 87 -33
111 -26 22 -37 25 -88 21 -32 -2 -58 -1 -58 4 0 4 -9 8 -20 8 -19 0 -20 -7
-20 -115z"/>
<path d="M1850 1221 c0 -4 -23 -6 -51 -3 -83 8 -129 -33 -129 -113 0 -68 80
-121 144 -96 20 7 32 8 34 1 2 -5 12 -10 23 -10 18 0 19 8 19 115 0 108 -1
115 -20 115 -11 0 -20 -4 -20 -9z m-16 -63 c24 -34 20 -73 -10 -97 -15 -12
-34 -21 -44 -21 -31 0 -70 39 -70 71 0 62 90 96 124 47z"/>
<path d="M921 1194 c-61 -51 -48 -150 24 -180 44 -18 59 -18 100 2 104 49 66
204 -51 204 -31 0 -51 -7 -73 -26z m132 -46 c20 -27 20 -29 4 -63 -26 -55 -90
-60 -123 -9 -50 76 65 145 119 72z"/>
</g>
</svg>
