<?xml version="1.0" standalone="no"?>
<!DOCTYPE svg PUBLIC "-//W3C//DTD SVG 20010904//EN"
 "http://www.w3.org/TR/2001/REC-SVG-20010904/DTD/svg10.dtd">
<svg version="1.0" xmlns="http://www.w3.org/2000/svg"
 width="300.000000pt" height="80.000000pt" viewBox="0 0 300.000000 80.000000"
 preserveAspectRatio="xMidYMid meet">

<g transform="translate(0.000000,80.000000) scale(0.100000,-0.100000)"
fill="#000000" stroke="none">
<path d="M5 780 c3 -6 50 -10 106 -10 l99 0 0 -205 c0 -130 4 -205 10 -205 6
0 10 75 10 205 l0 205 100 0 c60 0 100 4 100 10 0 6 -79 10 -216 10 -141 0
-213 -3 -209 -10z"/>
<path d="M635 771 c-82 -37 -121 -112 -112 -219 9 -122 84 -187 212 -187 129
0 205 68 213 189 9 147 -71 236 -213 236 -37 0 -76 -8 -100 -19z m201 -28 c56
-29 89 -91 88 -168 0 -35 -7 -73 -17 -91 -68 -131 -276 -130 -345 1 -23 45
-20 141 6 192 45 86 170 117 268 66z"/>
<path d="M1155 771 c-51 -24 -81 -56 -100 -110 -46 -130 15 -262 135 -291 103
-25 205 9 250 83 24 38 25 47 5 47 -8 0 -15 -6 -15 -13 0 -27 -68 -79 -120
-93 -154 -40 -276 82 -236 236 18 69 63 115 128 130 88 21 172 -7 215 -72 27
-40 43 -49 43 -23 0 27 -77 101 -118 113 -58 18 -141 14 -187 -7z"/>
<path d="M1550 780 c0 -6 42 -10 105 -10 l105 0 0 -205 c0 -130 4 -205 10
-205 6 0 10 75 10 205 l0 205 100 0 c60 0 100 4 100 10 0 6 -78 10 -215 10
-137 0 -215 -4 -215 -10z"/>
<path d="M2070 653 c0 -155 12 -198 69 -246 87 -73 258 -56 318 33 35 50 43
94 43 228 0 102 -2 122 -15 122 -13 0 -15 -21 -14 -134 0 -116 -2 -139 -20
-174 -40 -79 -132 -115 -225 -88 -107 31 -135 88 -136 269 0 78 -4 127 -10
127 -6 0 -10 -52 -10 -137z"/>
<path d="M2921 779 c-79 -32 -115 -89 -130 -203 -14 -118 -49 -161 -148 -186
-56 -14 -58 -35 -2 -26 111 18 179 107 179 237 0 73 57 140 136 160 24 6 44
15 44 20 0 12 -48 10 -79 -2z"/>
<path d="M2919 423 c-13 -16 -12 -17 4 -4 16 13 21 21 13 21 -2 0 -10 -8 -17
-17z"/>
<path d="M2960 436 c0 -2 7 -7 16 -10 8 -3 12 -2 9 4 -6 10 -25 14 -25 6z"/>
<path d="M2948 363 c7 -3 16 -2 19 1 4 3 -2 6 -13 5 -11 0 -14 -3 -6 -6z"/>
</g>
</svg>
