<?xml version="1.0" standalone="no"?>
<!DOCTYPE svg PUBLIC "-//W3C//DTD SVG 20010904//EN"
 "http://www.w3.org/TR/2001/REC-SVG-20010904/DTD/svg10.dtd">
<svg version="1.0" xmlns="http://www.w3.org/2000/svg"
 width="233.000000pt" height="148.000000pt" viewBox="0 0 233.000000 148.000000"
 preserveAspectRatio="xMidYMid meet">

<g transform="translate(0.000000,148.000000) scale(0.100000,-0.100000)"
fill="#000000" stroke="none">
<path d="M1170 1431 c0 -50 -31 -106 -105 -189 -69 -77 -81 -104 -71 -154 7
-36 76 -132 106 -148 18 -10 20 -8 20 25 0 48 22 88 85 155 69 74 85 99 85
135 0 46 -16 65 -24 28 -4 -18 -37 -59 -86 -108 -46 -46 -85 -94 -91 -113 -8
-25 -14 -30 -24 -22 -40 33 -20 105 53 187 99 114 111 149 72 208 l-20 30 0
-34z"/>
<path d="M1240 1065 c-73 -87 -82 -106 -69 -143 20 -58 94 -69 141 -21 29 28
30 34 25 88 -2 32 -13 76 -23 99 l-19 42 -55 -65z"/>
<path d="M23 783 c22 -6 29 -19 122 -243 42 -102 80 -188 84 -192 6 -7 37 64
178 410 14 33 14 33 -13 30 -20 -2 -30 -10 -35 -30 -16 -62 -122 -317 -129
-313 -5 3 -14 22 -21 43 -6 20 -34 90 -62 155 -39 94 -55 121 -78 132 -15 8
-36 14 -46 14 -17 -1 -17 -2 0 -6z"/>
<path d="M495 560 l0 -230 25 0 25 0 0 230 0 230 -25 0 -25 0 0 -230z"/>
<path d="M620 770 c0 -18 7 -20 70 -20 l70 0 0 -210 0 -210 25 0 25 0 0 210 0
210 70 0 c63 0 70 2 70 20 0 19 -7 20 -165 20 -158 0 -165 -1 -165 -20z"/>
<path d="M1040 632 c-35 -86 -78 -190 -96 -229 l-33 -73 27 0 c24 0 30 7 50
65 l24 65 88 0 89 0 19 -42 c24 -54 49 -76 93 -83 26 -4 29 -3 14 4 -33 14
-39 26 -125 241 -45 113 -83 206 -84 207 -1 1 -31 -68 -66 -155z m99 -37 c17
-44 31 -83 31 -87 0 -5 -32 -8 -71 -8 -64 0 -70 2 -64 18 4 9 18 46 32 82 26
68 33 83 38 78 2 -2 17 -39 34 -83z"/>
<path d="M1410 560 l0 -230 105 0 c98 0 105 1 105 20 0 18 -7 20 -80 20 l-80
0 0 210 0 210 -25 0 -25 0 0 -230z"/>
<path d="M1700 560 l0 -230 105 0 c98 0 105 1 105 20 0 18 -7 20 -80 20 l-80
0 0 210 0 210 -25 0 -25 0 0 -230z"/>
<path d="M1990 560 l0 -230 25 0 25 0 0 230 0 230 -25 0 -25 0 0 -230z"/>
<path d="M2192 774 c-18 -10 -40 -30 -48 -45 -31 -61 -10 -119 69 -183 56 -46
74 -85 58 -125 -19 -45 -85 -65 -132 -41 -16 9 -19 7 -19 -14 0 -19 7 -26 31
-31 72 -16 152 22 168 80 16 57 -2 96 -74 162 -57 52 -65 65 -65 96 0 55 45
86 106 74 21 -4 25 -1 22 17 -2 17 -11 21 -43 24 -22 1 -55 -5 -73 -14z"/>
<path d="M453 133 c9 -2 23 -2 30 0 6 3 -1 5 -18 5 -16 0 -22 -2 -12 -5z"/>
<path d="M562 73 l2 -68 3 62 c4 58 5 62 31 66 25 4 24 4 -5 6 l-33 1 2 -67z"/>
<path d="M878 133 c12 -2 32 -2 45 0 12 2 2 4 -23 4 -25 0 -35 -2 -22 -4z"/>
<path d="M983 75 c0 -38 2 -53 4 -32 2 20 2 52 0 70 -2 17 -4 1 -4 -38z"/>
<path d="M1198 133 c7 -3 16 -2 19 1 4 3 -2 6 -13 5 -11 0 -14 -3 -6 -6z"/>
<path d="M1613 75 c0 -38 2 -53 4 -32 2 20 2 52 0 70 -2 17 -4 1 -4 -38z"/>
<path d="M1813 75 c0 -38 2 -53 4 -32 2 20 2 52 0 70 -2 17 -4 1 -4 -38z"/>
<path d="M1163 115 c-3 -9 -3 -18 -1 -21 3 -3 8 4 11 16 6 23 -1 27 -10 5z"/>
</g>
</svg>
